<svg id="Layer_1" data-name="Layer 1" xmlns="http://www.w3.org/2000/svg" viewBox="0 0 3662.39 5958.6"><defs><style>.cls-1{fill:#a3a3a3;stroke:#a3a3a3;stroke-miterlimit:10;stroke-width:15.87px;}</style></defs><title>dots</title><circle class="cls-1" cx="170.09" cy="3145.41" r="12.46"/><circle class="cls-1" cx="502.31" cy="3145.41" r="12.46"/><circle class="cls-1" cx="834.53" cy="3145.41" r="12.46"/><circle class="cls-1" cx="1166.76" cy="3145.41" r="12.46"/><circle class="cls-1" cx="1498.98" cy="3145.41" r="12.46"/><circle class="cls-1" cx="1831.2" cy="3145.41" r="12.46"/><circle class="cls-1" cx="2163.42" cy="3145.41" r="12.46"/><circle class="cls-1" cx="2495.64" cy="3145.41" r="12.46"/><circle class="cls-1" cx="170.09" cy="3477.63" r="12.46"/><circle class="cls-1" cx="502.31" cy="3477.63" r="12.46"/><circle class="cls-1" cx="834.53" cy="3477.63" r="12.46"/><circle class="cls-1" cx="1166.76" cy="3477.63" r="12.46"/><circle class="cls-1" cx="1498.98" cy="3477.63" r="12.46"/><circle class="cls-1" cx="1831.2" cy="3477.63" r="12.46"/><circle class="cls-1" cx="2163.42" cy="3477.63" r="12.46"/><circle class="cls-1" cx="2495.64" cy="3477.63" r="12.46"/><circle class="cls-1" cx="170.09" cy="3809.85" r="12.46"/><circle class="cls-1" cx="502.31" cy="3809.85" r="12.46"/><circle class="cls-1" cx="834.53" cy="3809.85" r="12.46"/><circle class="cls-1" cx="1166.76" cy="3809.85" r="12.46"/><circle class="cls-1" cx="1498.98" cy="3809.85" r="12.46"/><circle class="cls-1" cx="1831.2" cy="3809.85" r="12.46"/><circle class="cls-1" cx="2163.42" cy="3809.85" r="12.46"/><circle class="cls-1" cx="2495.64" cy="3809.85" r="12.46"/><circle class="cls-1" cx="170.09" cy="4142.07" r="12.46"/><circle class="cls-1" cx="502.31" cy="4142.07" r="12.46"/><circle class="cls-1" cx="834.53" cy="4142.07" r="12.46"/><circle class="cls-1" cx="1166.76" cy="4142.07" r="12.46"/><circle class="cls-1" cx="1498.98" cy="4142.07" r="12.46"/><circle class="cls-1" cx="1831.2" cy="4142.07" r="12.46"/><circle class="cls-1" cx="2163.42" cy="4142.07" r="12.46"/><circle class="cls-1" cx="2495.64" cy="4142.07" r="12.46"/><circle class="cls-1" cx="170.09" cy="4474.29" r="12.46"/><circle class="cls-1" cx="502.31" cy="4474.29" r="12.46"/><circle class="cls-1" cx="834.53" cy="4474.29" r="12.46"/><circle class="cls-1" cx="1166.76" cy="4474.29" r="12.46"/><circle class="cls-1" cx="1498.98" cy="4474.29" r="12.46"/><circle class="cls-1" cx="1831.2" cy="4474.29" r="12.46"/><circle class="cls-1" cx="2163.42" cy="4474.29" r="12.46"/><circle class="cls-1" cx="2495.64" cy="4474.29" r="12.46"/><circle class="cls-1" cx="170.09" cy="4806.51" r="12.46"/><circle class="cls-1" cx="502.31" cy="4806.51" r="12.46"/><circle class="cls-1" cx="834.53" cy="4806.51" r="12.46"/><circle class="cls-1" cx="1166.76" cy="4806.51" r="12.46"/><circle class="cls-1" cx="1498.98" cy="4806.51" r="12.46"/><circle class="cls-1" cx="1831.2" cy="4806.51" r="12.46"/><circle class="cls-1" cx="2163.42" cy="4806.51" r="12.46"/><circle class="cls-1" cx="2495.64" cy="4806.51" r="12.46"/><circle class="cls-1" cx="170.09" cy="5138.73" r="12.46"/><circle class="cls-1" cx="502.31" cy="5138.73" r="12.46"/><circle class="cls-1" cx="834.53" cy="5138.73" r="12.46"/><circle class="cls-1" cx="1166.76" cy="5138.73" r="12.46"/><circle class="cls-1" cx="1498.98" cy="5138.73" r="12.46"/><circle class="cls-1" cx="1831.2" cy="5138.73" r="12.46"/><circle class="cls-1" cx="2163.42" cy="5138.73" r="12.46"/><circle class="cls-1" cx="2495.64" cy="5138.73" r="12.46"/><circle class="cls-1" cx="170.09" cy="5470.96" r="12.46"/><circle class="cls-1" cx="502.31" cy="5470.96" r="12.46"/><circle class="cls-1" cx="834.53" cy="5470.96" r="12.46"/><circle class="cls-1" cx="1166.76" cy="5470.96" r="12.46"/><circle class="cls-1" cx="1498.98" cy="5470.96" r="12.46"/><circle class="cls-1" cx="1831.2" cy="5470.96" r="12.46"/><circle class="cls-1" cx="2163.42" cy="5470.96" r="12.46"/><circle class="cls-1" cx="2495.64" cy="5470.96" r="12.46"/><circle class="cls-1" cx="170.09" cy="5803.18" r="12.46"/><circle class="cls-1" cx="502.31" cy="5803.18" r="12.46"/><circle class="cls-1" cx="834.53" cy="5803.18" r="12.46"/><circle class="cls-1" cx="1166.76" cy="5803.18" r="12.46"/><circle class="cls-1" cx="1498.98" cy="5803.18" r="12.46"/><circle class="cls-1" cx="1831.2" cy="5803.18" r="12.46"/><circle class="cls-1" cx="2163.42" cy="5803.18" r="12.46"/><circle class="cls-1" cx="2495.64" cy="5803.18" r="12.46"/><circle class="cls-1" cx="2827.86" cy="3145.41" r="12.46"/><circle class="cls-1" cx="3160.08" cy="3145.41" r="12.46"/><circle class="cls-1" cx="3492.3" cy="3145.41" r="12.46"/><circle class="cls-1" cx="2827.86" cy="3477.63" r="12.46"/><circle class="cls-1" cx="3160.08" cy="3477.63" r="12.46"/><circle class="cls-1" cx="3492.3" cy="3477.63" r="12.46"/><circle class="cls-1" cx="2827.86" cy="3809.85" r="12.46"/><circle class="cls-1" cx="3160.08" cy="3809.85" r="12.46"/><circle class="cls-1" cx="3492.3" cy="3809.85" r="12.46"/><circle class="cls-1" cx="2827.86" cy="4142.07" r="12.46"/><circle class="cls-1" cx="3160.08" cy="4142.07" r="12.46"/><circle class="cls-1" cx="3492.3" cy="4142.07" r="12.46"/><circle class="cls-1" cx="2827.86" cy="4474.29" r="12.46"/><circle class="cls-1" cx="3160.08" cy="4474.29" r="12.46"/><circle class="cls-1" cx="3492.3" cy="4474.29" r="12.46"/><circle class="cls-1" cx="2827.86" cy="4806.51" r="12.46"/><circle class="cls-1" cx="3160.08" cy="4806.51" r="12.46"/><circle class="cls-1" cx="3492.3" cy="4806.51" r="12.46"/><circle class="cls-1" cx="2827.86" cy="5138.73" r="12.46"/><circle class="cls-1" cx="3160.08" cy="5138.73" r="12.46"/><circle class="cls-1" cx="3492.3" cy="5138.73" r="12.46"/><circle class="cls-1" cx="2827.86" cy="5470.96" r="12.46"/><circle class="cls-1" cx="3160.08" cy="5470.96" r="12.46"/><circle class="cls-1" cx="3492.3" cy="5470.96" r="12.46"/><circle class="cls-1" cx="2827.86" cy="5803.18" r="12.46"/><circle class="cls-1" cx="3160.08" cy="5803.18" r="12.46"/><circle class="cls-1" cx="3492.3" cy="5803.18" r="12.46"/><circle class="cls-1" cx="170.09" cy="155.43" r="12.46"/><circle class="cls-1" cx="502.31" cy="155.43" r="12.46"/><circle class="cls-1" cx="834.53" cy="155.43" r="12.46"/><circle class="cls-1" cx="1166.76" cy="155.43" r="12.46"/><circle class="cls-1" cx="1498.98" cy="155.43" r="12.46"/><circle class="cls-1" cx="1831.2" cy="155.43" r="12.46"/><circle class="cls-1" cx="2163.42" cy="155.43" r="12.46"/><circle class="cls-1" cx="2495.64" cy="155.43" r="12.46"/><circle class="cls-1" cx="170.09" cy="487.65" r="12.46"/><circle class="cls-1" cx="502.31" cy="487.65" r="12.46"/><circle class="cls-1" cx="834.53" cy="487.65" r="12.46"/><circle class="cls-1" cx="1166.76" cy="487.65" r="12.46"/><circle class="cls-1" cx="1498.98" cy="487.65" r="12.46"/><circle class="cls-1" cx="1831.2" cy="487.65" r="12.46"/><circle class="cls-1" cx="2163.42" cy="487.65" r="12.46"/><circle class="cls-1" cx="2495.64" cy="487.65" r="12.46"/><circle class="cls-1" cx="170.09" cy="819.87" r="12.46"/><circle class="cls-1" cx="502.31" cy="819.87" r="12.46"/><circle class="cls-1" cx="834.53" cy="819.87" r="12.46"/><circle class="cls-1" cx="1166.76" cy="819.87" r="12.46"/><circle class="cls-1" cx="1498.98" cy="819.87" r="12.46"/><circle class="cls-1" cx="1831.2" cy="819.87" r="12.46"/><circle class="cls-1" cx="2163.42" cy="819.87" r="12.46"/><circle class="cls-1" cx="2495.64" cy="819.87" r="12.46"/><circle class="cls-1" cx="170.09" cy="1152.09" r="12.46"/><circle class="cls-1" cx="502.31" cy="1152.09" r="12.46"/><circle class="cls-1" cx="834.53" cy="1152.09" r="12.46"/><circle class="cls-1" cx="1166.76" cy="1152.09" r="12.46"/><circle class="cls-1" cx="1498.98" cy="1152.09" r="12.46"/><circle class="cls-1" cx="1831.2" cy="1152.09" r="12.46"/><circle class="cls-1" cx="2163.42" cy="1152.09" r="12.46"/><circle class="cls-1" cx="2495.64" cy="1152.09" r="12.46"/><circle class="cls-1" cx="170.09" cy="1484.31" r="12.46"/><circle class="cls-1" cx="502.31" cy="1484.31" r="12.46"/><circle class="cls-1" cx="834.53" cy="1484.31" r="12.46"/><circle class="cls-1" cx="1166.76" cy="1484.31" r="12.46"/><circle class="cls-1" cx="1498.98" cy="1484.31" r="12.46"/><circle class="cls-1" cx="1831.2" cy="1484.31" r="12.46"/><circle class="cls-1" cx="2163.42" cy="1484.31" r="12.46"/><circle class="cls-1" cx="2495.64" cy="1484.31" r="12.46"/><circle class="cls-1" cx="170.09" cy="1816.53" r="12.46"/><circle class="cls-1" cx="502.31" cy="1816.53" r="12.46"/><circle class="cls-1" cx="834.53" cy="1816.53" r="12.46"/><circle class="cls-1" cx="1166.76" cy="1816.53" r="12.46"/><circle class="cls-1" cx="1498.98" cy="1816.53" r="12.46"/><circle class="cls-1" cx="1831.2" cy="1816.53" r="12.46"/><circle class="cls-1" cx="2163.42" cy="1816.53" r="12.46"/><circle class="cls-1" cx="2495.64" cy="1816.53" r="12.46"/><circle class="cls-1" cx="170.09" cy="2148.75" r="12.46"/><circle class="cls-1" cx="502.31" cy="2148.75" r="12.46"/><circle class="cls-1" cx="834.53" cy="2148.75" r="12.46"/><circle class="cls-1" cx="1166.76" cy="2148.75" r="12.46"/><circle class="cls-1" cx="1498.98" cy="2148.75" r="12.46"/><circle class="cls-1" cx="1831.2" cy="2148.75" r="12.46"/><circle class="cls-1" cx="2163.42" cy="2148.75" r="12.46"/><circle class="cls-1" cx="2495.64" cy="2148.75" r="12.46"/><circle class="cls-1" cx="170.09" cy="2480.97" r="12.46"/><circle class="cls-1" cx="502.31" cy="2480.97" r="12.46"/><circle class="cls-1" cx="834.53" cy="2480.97" r="12.46"/><circle class="cls-1" cx="1166.76" cy="2480.97" r="12.46"/><circle class="cls-1" cx="1498.98" cy="2480.97" r="12.46"/><circle class="cls-1" cx="1831.2" cy="2480.97" r="12.46"/><circle class="cls-1" cx="2163.42" cy="2480.97" r="12.46"/><circle class="cls-1" cx="2495.64" cy="2480.97" r="12.46"/><circle class="cls-1" cx="170.09" cy="2813.19" r="12.46"/><circle class="cls-1" cx="502.31" cy="2813.19" r="12.46"/><circle class="cls-1" cx="834.53" cy="2813.19" r="12.46"/><circle class="cls-1" cx="1166.76" cy="2813.19" r="12.46"/><circle class="cls-1" cx="1498.98" cy="2813.19" r="12.46"/><circle class="cls-1" cx="1831.2" cy="2813.19" r="12.46"/><circle class="cls-1" cx="2163.42" cy="2813.19" r="12.46"/><circle class="cls-1" cx="2495.64" cy="2813.19" r="12.46"/><circle class="cls-1" cx="2827.86" cy="155.43" r="12.46"/><circle class="cls-1" cx="3160.08" cy="155.43" r="12.46"/><circle class="cls-1" cx="3492.3" cy="155.43" r="12.46"/><circle class="cls-1" cx="2827.86" cy="487.65" r="12.46"/><circle class="cls-1" cx="3160.08" cy="487.65" r="12.46"/><circle class="cls-1" cx="3492.3" cy="487.65" r="12.46"/><circle class="cls-1" cx="2827.86" cy="819.87" r="12.46"/><circle class="cls-1" cx="3160.08" cy="819.87" r="12.46"/><circle class="cls-1" cx="3492.3" cy="819.87" r="12.46"/><circle class="cls-1" cx="2827.86" cy="1152.09" r="12.46"/><circle class="cls-1" cx="3160.08" cy="1152.09" r="12.46"/><circle class="cls-1" cx="3492.3" cy="1152.09" r="12.46"/><circle class="cls-1" cx="2827.86" cy="1484.31" r="12.46"/><circle class="cls-1" cx="3160.08" cy="1484.31" r="12.46"/><circle class="cls-1" cx="3492.3" cy="1484.31" r="12.46"/><circle class="cls-1" cx="2827.86" cy="1816.53" r="12.46"/><circle class="cls-1" cx="3160.08" cy="1816.53" r="12.46"/><circle class="cls-1" cx="3492.3" cy="1816.53" r="12.46"/><circle class="cls-1" cx="2827.86" cy="2148.75" r="12.46"/><circle class="cls-1" cx="3160.08" cy="2148.75" r="12.46"/><circle class="cls-1" cx="3492.3" cy="2148.75" r="12.46"/><circle class="cls-1" cx="2827.86" cy="2480.97" r="12.46"/><circle class="cls-1" cx="3160.08" cy="2480.97" r="12.46"/><circle class="cls-1" cx="3492.3" cy="2480.97" r="12.46"/><circle class="cls-1" cx="2827.86" cy="2813.19" r="12.46"/><circle class="cls-1" cx="3160.08" cy="2813.19" r="12.46"/><circle class="cls-1" cx="3492.3" cy="2813.19" r="12.46"/></svg>